HIERARCHY
ROOT Hips
{
    OFFSET 0.000000 0.000000 0.000000
    CHANNELS 6 Xposition Yposition Zposition Zrotation Xrotation Yrotation
    JOINT Spine
    {
        OFFSET -0.000000 7.755141 0.000000
        CHANNELS 3 Zrotation Xrotation Yrotation
        JOINT Spine1
        {
            OFFSET -0.000000 20.093737 0.000000
            CHANNELS 3 Zrotation Xrotation Yrotation
            JOINT Neck
            {
                OFFSET -0.000000 21.985235 0.000000
                CHANNELS 3 Zrotation Xrotation Yrotation
                JOINT Head
                {
                    OFFSET -0.000000 14.659108 1.891498
                    CHANNELS 3 Zrotation Xrotation Yrotation
                    End Site
                    {
                        OFFSET -0.000000 18.914978 0.000000
                    }
                }
            }
            JOINT LeftShoulder
            {
                OFFSET 3.789246 18.853123 -0.208244
                CHANNELS 3 Zrotation Xrotation Yrotation
                JOINT LeftArm
                {
                    OFFSET 9.468541 0.000000 0.000000
                    CHANNELS 3 Zrotation Xrotation Yrotation
                    JOINT LeftForeArm
                    {
                        OFFSET 31.465202 0.000000 0.000000
                        CHANNELS 3 Zrotation Xrotation Yrotation
                        JOINT LeftHand
                        {
                            OFFSET 26.964474 0.000000 0.000000
                            CHANNELS 3 Zrotation Xrotation Yrotation
                            End Site
                            {
                                OFFSET 14.186234 0.000000 0.000000
                            }
                        }
                    }
                }
            }
            JOINT RightShoulder
            {
                OFFSET -3.772747 18.853123 -0.208244
                CHANNELS 3 Zrotation Xrotation Yrotation
                JOINT RightArm
                {
                    OFFSET -9.468541 0.000000 0.000000
                    CHANNELS 3 Zrotation Xrotation Yrotation
                    JOINT RightForeArm
                    {
                        OFFSET -31.465202 0.000000 0.000000
                        CHANNELS 3 Zrotation Xrotation Yrotation
                        JOINT RightHand
                        {
                            OFFSET -26.964474 0.000000 0.000000
                            CHANNELS 3 Zrotation Xrotation Yrotation
                            End Site
                            {
                                OFFSET -14.186234 0.000000 0.000000
                            }
                        }
                    }
                }
            }
        }
    }
    JOINT LeftUpLeg
    {
        OFFSET 9.457489 0.000000 0.000000
        CHANNELS 3 Zrotation Xrotation Yrotation
        JOINT LeftLeg
        {
            OFFSET -0.000000 -40.941395 0.000000
            CHANNELS 3 Zrotation Xrotation Yrotation
            JOINT LeftFoot
            {
                OFFSET -0.000000 -37.782906 0.000000
                CHANNELS 3 Zrotation Xrotation Yrotation
                JOINT LeftToeBase
                {
                    OFFSET -0.000000 -6.147367 14.186234
                    CHANNELS 3 Zrotation Xrotation Yrotation
                    End Site
                    {
                        OFFSET -0.000000 0.000000 3.782995
                    }
                }
            }
        }
    }
    JOINT RightUpLeg
    {
        OFFSET -9.457489 0.000000 0.000000
        CHANNELS 3 Zrotation Xrotation Yrotation
        JOINT RightLeg
        {
            OFFSET -0.000000 -40.941395 0.000000
            CHANNELS 3 Zrotation Xrotation Yrotation
            JOINT RightFoot
            {
                OFFSET -0.000000 -37.782906 0.000000
                CHANNELS 3 Zrotation Xrotation Yrotation
                JOINT RightToeBase
                {
                    OFFSET -0.000000 -6.147367 14.186234
                    CHANNELS 3 Zrotation Xrotation Yrotation
                    End Site
                    {
                        OFFSET -0.000000 0.000000 3.782995
                    }
                }
            }
        }
    }
}
MOTION
Frames:    10
Frame Time:    0.010000
50.071991    89.340424    60.774487    -0.005748    -1.390431    9.956912    4.280257    -9.216401    5.350158    -4.715106    2.620440    1.774861    -3.877373    13.035489    2.774249    -8.898412    5.217304    3.452330    -1.778506    -0.620030    5.805437    -56.286510    -1.003748    -21.499981    69.415512    -70.090942    -8.549580    39.523861    -60.005383    47.550423    -2.959154    8.317595    -2.968456    63.448074    81.997116    15.142898    -19.503145    -22.939276    10.023584    32.747932    -21.302290    0.136116    0.647163    3.342636    -1.684652    -2.526295    6.773240    -2.738134    4.717642    -9.449910    17.437992    0.000000    0.000000    0.000000    -5.516040    5.518981    -0.691724    2.161670    5.951291    -3.131372    5.528427    -10.031301    -13.882094    0.000000    0.000000    0.000000    
50.100212    89.337280    60.786144    -0.011734    -1.396227    9.975880    4.312021    -9.239092    5.466135    -4.788146    2.618363    1.814011    -3.817941    13.031122    2.772567    -8.934565    5.331192    3.480404    -1.943955    -0.735657    5.820189    -56.444073    -1.018160    -21.428095    70.066513    -69.729912    -7.974867    39.374672    -59.696541    47.489944    -2.924224    8.253053    -3.083684    64.117798    82.128044    14.418440    -19.500675    -22.996090    10.165028    32.670719    -21.359423    0.054946    0.634308    3.359425    -1.648715    -2.519137    6.771369    -2.740958    4.652886    -9.533864    17.440536    0.000000    0.000000    0.000000    -5.517777    5.534513    -0.692507    2.149301    5.926500    -3.472998    5.616394    -9.970740    -13.579409    0.000000    0.000000    0.000000    
50.135136    89.331497    60.801720    -0.009783    -1.396960    9.997278    4.383661    -9.292996    5.544187    -4.921419    2.659484    1.842262    -3.815207    13.024351    2.809552    -8.886554    5.410219    3.517064    -2.309017    -0.405248    6.082275    -56.287498    -0.823105    -21.954443    71.369347    -69.426193    -6.684744    39.073708    -59.706284    47.624741    -2.894625    8.267118    -3.104552    63.799656    82.318901    14.807120    -19.586565    -22.978453    9.986982    32.840176    -21.327869    0.182980    0.610409    3.387679    -1.690673    -2.508828    6.739727    -2.772836    4.655632    -9.540357    17.473518    0.000000    0.000000    0.000000    -5.538268    5.572073    -0.739208    2.141510    5.919653    -3.184618    5.563606    -10.014419    -13.812554    0.000000    0.000000    0.000000    
50.168930    89.330505    60.810978    -0.037666    -1.391199    10.001105    4.448055    -9.351126    5.666699    -4.989134    2.714669    1.884654    -3.932091    12.843306    2.818519    -8.633621    5.736043    3.482921    -2.190349    -0.479445    6.076930    -56.777122    -0.878956    -21.774155    70.954285    -69.450623    -7.178304    39.052662    -59.626171    47.445374    -2.894387    8.362058    -3.132046    63.595791    82.243591    15.025592    -19.567463    -22.953600    10.057209    32.837711    -21.287685    0.202177    0.607983    3.395738    -1.705220    -2.497441    6.722636    -2.740821    4.691365    -9.564352    17.446493    0.000000    0.000000    0.000000    -5.543980    5.595023    -0.720942    2.166199    5.869964    -3.206756    5.570962    -9.978099    -13.811515    0.000000    0.000000    0.000000    
50.186382    89.319481    60.843121    0.018145    -1.426659    10.070703    4.360765    -9.382063    5.695307    -5.007592    2.740449    1.897866    -3.901936    12.944922    2.755263    -8.652810    5.707979    3.422955    -2.197457    -0.463690    6.090793    -57.097008    -0.937907    -21.617071    70.582588    -69.473297    -7.677250    39.235584    -59.439022    47.493076    -2.861031    8.370098    -3.109621    63.677486    82.441185    14.973104    -19.533260    -23.156282    10.028595    32.128773    -21.548412    0.027224    0.560307    3.466554    -1.772287    -2.506594    6.706120    -2.770120    4.715058    -9.563297    17.470732    0.000000    0.000000    0.000000    -5.585437    5.676109    -0.731357    2.147907    5.853259    -3.509239    5.625020    -9.981900    -13.533433    0.000000    0.000000    0.000000    
50.205196    89.324577    60.844810    -0.015881    -1.419298    10.062915    4.395219    -9.417845    5.802188    -5.020608    2.741289    1.932410    -3.725500    13.121946    2.682767    -9.030797    5.494771    3.437139    -2.341401    -0.412614    6.119811    -57.219212    -0.916533    -21.657291    70.912491    -69.421722    -7.375329    39.511494    -59.376072    47.537403    -2.904977    8.396542    -3.143227    63.739624    82.463623    14.957222    -19.645639    -23.018694    9.872589    32.950432    -21.304527    0.464388    0.579628    3.460923    -1.771937    -2.507533    6.701732    -2.762083    4.686676    -9.581324    17.477907    0.000000    0.000000    0.000000    -5.567770    5.656089    -0.716145    2.153380    5.866793    -3.473322    5.624333    -9.955445    -13.578207    0.000000    0.000000    0.000000    
50.237976    89.315849    60.832680    -0.021577    -1.394503    10.054770    4.456344    -9.420974    5.898770    -5.123989    2.725308    1.964624    -3.887903    12.993519    2.760822    -8.654010    5.728297    3.432184    -2.409446    -0.414910    6.171821    -57.403027    -0.919533    -21.625671    70.824333    -69.536697    -7.564322    38.768883    -59.735607    47.233803    -2.911329    8.436270    -3.185686    63.276852    82.640244    15.469972    -19.592945    -23.239861    9.952969    32.331760    -21.614140    0.123701    0.543418    3.419295    -1.742171    -2.477612    6.728788    -2.800286    4.916311    -9.468483    17.490751    0.000000    0.000000    0.000000    -5.606307    5.616817    -0.744211    2.179832    5.912802    -3.186866    5.577657    -10.029648    -13.819075    0.000000    0.000000    0.000000    
50.250221    89.313553    60.843639    -0.028414    -1.388593    10.094883    4.399312    -9.418083    5.986660    -5.091904    2.664019    1.992050    -3.844831    12.998572    2.722574    -8.681768    5.844444    3.416725    -2.492802    -0.405727    6.131557    -57.591808    -0.989855    -21.447025    70.279510    -69.649551    -8.223579    39.454784    -59.444473    47.551559    -2.903608    8.453161    -3.298175    63.576340    82.635048    15.162207    -19.598753    -23.146378    9.897832    32.705727    -21.459448    0.373361    0.550309    3.416412    -1.777032    -2.487824    6.734760    -2.853110    4.739503    -9.623584    17.536760    0.000000    0.000000    0.000000    -5.606994    5.633456    -0.741881    2.191255    5.901969    -3.176417    5.533391    -10.025164    -13.778662    0.000000    0.000000    0.000000    
50.265511    89.308586    60.847576    -0.041838    -1.388606    10.111833    4.417508    -9.442642    6.052487    -5.148198    2.690310    2.015715    -3.826243    12.953643    2.691855    -8.642653    5.943623    3.391402    -2.794085    -0.345140    6.285126    -57.486221    -0.958788    -21.508698    69.676674    -69.771339    -8.965419    38.870434    -59.630379    47.147217    -2.870244    8.481128    -3.363817    63.044319    82.673935    15.693181    -19.370440    -23.348375    10.167013    31.744423    -21.806623    -0.246331    0.552959    3.413925    -1.795429    -2.485128    6.737328    -2.802668    4.949521    -9.504497    17.486559    0.000000    0.000000    0.000000    -5.597870    5.629216    -0.745742    2.184936    5.917434    -3.189569    5.556293    -10.032938    -13.781693    0.000000    0.000000    0.000000    
50.280170    89.309517    60.856033    -0.050066    -1.405413    10.134119    4.427677    -9.466619    6.106113    -5.199584    2.724625    2.035870    -3.715071    13.050532    2.565807    -8.863488    5.815494    3.315791    -2.839025    -0.299230    6.344950    -57.599270    -0.955804    -21.504171    69.469208    -69.763786    -9.230907    38.801556    -59.572678    47.065842    -2.858372    8.494412    -3.371773    62.875618    82.821075    15.897336    -19.546688    -23.279850    9.965148    32.333485    -21.663067    0.099325    0.554999    3.432768    -1.810067    -2.483617    6.740924    -2.794507    4.765583    -9.652593    17.471151    0.000000    0.000000    0.000000    -5.593184    5.651762    -0.751252    2.181538    5.928050    -3.183828    5.609690    -10.050413    -13.883176    0.000000    0.000000    0.000000    
